<?xml version="1.0" standalone="no"?>
<!DOCTYPE svg PUBLIC "-//W3C//DTD SVG 20010904//EN"
 "http://www.w3.org/TR/2001/REC-SVG-20010904/DTD/svg10.dtd">
<svg version="1.0" xmlns="http://www.w3.org/2000/svg"
 width="463.000000pt" height="463.000000pt" viewBox="0 0 463.000000 463.000000"
 preserveAspectRatio="xMidYMid meet">
<metadata>
Created by potrace 1.11, written by Peter Selinger 2001-2013
</metadata>
<g transform="translate(0.000000,463.000000) scale(0.100000,-0.100000)"
fill="#000000" stroke="none">
<path d="M2043 4619 c-419 -49 -848 -229 -1183 -497 -469 -376 -781 -943 -850
-1547 -13 -116 -13 -404 0 -520 59 -517 298 -1014 665 -1380 366 -367 863
-606 1380 -665 116 -13 404 -13 520 0 517 59 1014 298 1380 665 367 366 606
863 665 1380 13 116 13 404 0 520 -59 517 -298 1014 -665 1380 -366 367 -863
606 -1380 665 -105 12 -428 11 -532 -1z m1485 -528 c22 -11 22 -15 22 -192 l0
-181 -37 6 c-21 4 -92 9 -159 12 -105 5 -130 3 -195 -16 -173 -51 -265 -152
-324 -356 -41 -142 -46 -263 -43 -1079 l3 -760 275 -5 275 -5 3 -164 c2 -125
-1 -166 -10 -173 -20 -12 -875 -10 -899 2 -19 10 -19 29 -18 738 0 400 4 885
9 1077 8 330 10 356 34 450 93 356 344 585 716 655 66 13 320 6 348 -9z
m-1300 -623 c14 -14 16 -1454 2 -1858 -9 -271 -20 -357 -60 -484 -43 -132 -90
-206 -205 -321 -134 -134 -232 -190 -416 -236 -68 -18 -105 -20 -250 -17 -155
3 -172 5 -185 22 -11 15 -14 57 -14 175 0 86 4 162 9 170 8 12 21 13 94 1 149
-23 304 1 412 64 96 57 179 188 217 345 21 83 22 113 25 939 l4 852 -258 0
c-218 0 -262 2 -281 16 -21 14 -22 21 -22 168 0 105 4 156 12 164 17 17 899
17 916 0z"/>
</g>
</svg>
