<?xml version="1.0" standalone="no"?>
<!DOCTYPE svg PUBLIC "-//W3C//DTD SVG 20010904//EN"
 "http://www.w3.org/TR/2001/REC-SVG-20010904/DTD/svg10.dtd">
<svg version="1.0" xmlns="http://www.w3.org/2000/svg"
 width="512.000000pt" height="512.000000pt" viewBox="0 0 512.000000 512.000000"
 preserveAspectRatio="xMidYMid meet">
<metadata>
Created by potrace 1.11, written by Peter Selinger 2001-2013
</metadata>
<g transform="translate(0.000000,512.000000) scale(0.100000,-0.100000)"
fill="#000000" stroke="none">
<path d="M354 5096 c-168 -54 -294 -188 -339 -357 -22 -81 -22 -4277 0 -4358
47 -177 202 -330 375 -370 63 -15 4277 -15 4340 0 173 40 328 193 375 370 22
81 22 4277 0 4358 -46 176 -190 320 -366 366 -46 13 -369 15 -2184 14 l-2130
0 -71 -23z m1663 -2113 c-4 -1200 -1 -1148 -68 -1348 -99 -294 -299 -483 -595
-562 -166 -44 -473 -37 -659 15 l-30 9 2 79 c1 43 5 103 8 133 12 95 64 121
178 86 120 -36 306 -26 437 24 77 29 160 98 209 173 51 77 95 212 110 333 7
60 11 436 11 1118 l0 1027 200 0 201 0 -4 -1087z m1143 -243 l0 -1330 650 0
650 0 0 -170 0 -170 -850 0 -850 0 0 1500 0 1500 200 0 200 0 0 -1330z"/>
</g>
</svg>
